HIERARCHY
ROOT Hips
{
	OFFSET 0.00000 0.00000 0.00000
	CHANNELS 6 Xposition Yposition Zposition Zrotation Yrotation Xrotation 
	JOINT LHipJoint
	{
		OFFSET 0 0 0
		CHANNELS 3 Zrotation Yrotation Xrotation
		JOINT LeftHip
		{
			OFFSET 1.57358 -1.76629 0.73362
			CHANNELS 3 Zrotation Yrotation Xrotation
			JOINT LeftKnee
			{
				OFFSET 2.40600 -6.61045 0.00000
				CHANNELS 3 Zrotation Yrotation Xrotation
				JOINT LeftAnkle
				{
					OFFSET 2.66168 -7.31291 0.00000
					CHANNELS 3 Zrotation Yrotation Xrotation
					JOINT LeftToe
					{
						OFFSET 0.20870 -0.57341 2.12506
						CHANNELS 3 Zrotation Yrotation Xrotation
						End Site
						{
							OFFSET 0.00000 -0.00000 1.10557
						}
					}
				}
			}
		}
	}
	JOINT RHipJoint
	{
		OFFSET 0 0 0
		CHANNELS 3 Zrotation Yrotation Xrotation
		JOINT RightHip
		{
			OFFSET -1.49299 -1.76629 0.73362
			CHANNELS 3 Zrotation Yrotation Xrotation
			JOINT RightKnee
			{
				OFFSET -2.43663 -6.69460 0.00000
				CHANNELS 3 Zrotation Yrotation Xrotation
				JOINT RightAnkle
				{
					OFFSET -2.62959 -7.22474 0.00000
					CHANNELS 3 Zrotation Yrotation Xrotation
					JOINT RightToe
					{
						OFFSET -0.25784 -0.70841 2.21862
						CHANNELS 3 Zrotation Yrotation Xrotation
						End Site
						{
							OFFSET -0.00000 -0.00000 1.16452
						}
					}
				}
			}
		}
	}
	JOINT lowerback
	{
		OFFSET 0 0 0
		CHANNELS 3 Zrotation Yrotation Xrotation
		JOINT Chest
		{
			OFFSET -0.00034 2.12399 -0.25450
			CHANNELS 3 Zrotation Yrotation Xrotation
			JOINT Chest2
			{
				OFFSET 0.05594 2.14379 -0.03318
				CHANNELS 3 Zrotation Yrotation Xrotation
				JOINT lowerneck
				{
					OFFSET 0 0 0
					CHANNELS 3 Zrotation Yrotation Xrotation
					JOINT Neck
					{
						OFFSET -0.09835 1.62725 0.24211
						CHANNELS 3 Zrotation Yrotation Xrotation
						JOINT Head
						{
							OFFSET 0.10849 1.66041 -0.22648
							CHANNELS 3 Zrotation Yrotation Xrotation
							End Site
							{
								OFFSET 0.04385 1.68267 -0.10541
							}
						}
					}
				}
				JOINT LeftCollar
				{
					OFFSET 0 0 0
					CHANNELS 3 Zrotation Yrotation Xrotation
					JOINT LeftShoulder
					{
						OFFSET 3.29108 0.79398 -0.68179
CHANNELS 3 Zrotation Xrotation Yrotation
						JOINT LeftElbow
						{
OFFSET 0 -5.153100 -0.000000
CHANNELS 3 Zrotation Xrotation Yrotation
							JOINT LeftWrist
							{
OFFSET 0 -3.751380 -0.000000
CHANNELS 3 Zrotation Xrotation Yrotation
								JOINT lhand
								{
									OFFSET 0 0 0
CHANNELS 3 Zrotation Xrotation Yrotation
									JOINT LFingers
									{
OFFSET 0 -0.529170 0.000000
CHANNELS 3 Zrotation Xrotation Yrotation
										End Site
										{
OFFSET 0 -0.426630 0.000000
										}
									}
								}
								JOINT LThumb
								{
OFFSET 0 0.000000 0.000000
CHANNELS 3 Zrotation Xrotation Yrotation
									End Site
									{
OFFSET 0 -0.433150 0.433150
									}
								}
							}
						}
					}
				}
				JOINT RightCollar
				{
					OFFSET 0 0 0
					CHANNELS 3 Zrotation Yrotation Xrotation
					JOINT RightShoulder
					{
						OFFSET -3.07414 1.06285 -0.44338
CHANNELS 3 Zrotation Xrotation Yrotation
						JOINT RightElbow
						{
OFFSET 0 -5.296130 0.000000
CHANNELS 3 Zrotation Xrotation Yrotation
							JOINT RightWrist
							{
OFFSET 0 -3.761440 -0.000000
CHANNELS 3 Zrotation Xrotation Yrotation
								JOINT rhand
								{
									OFFSET 0 0 0
CHANNELS 3 Zrotation Xrotation Yrotation
									JOINT RFingers
									{
OFFSET 0 -0.747320 0.000000
CHANNELS 3 Zrotation Xrotation Yrotation
										End Site
										{
OFFSET 0 -0.602510 0.000000
										}
									}
								}
								JOINT RThumb
								{
OFFSET 0 0.000000 0.000000
CHANNELS 3 Zrotation Xrotation Yrotation
									End Site
									{
OFFSET 0 -0.611710 0.611710
									}
								}
							}
						}
					}
				}
			}
		}
	}
}
MOTION
Frames: 10
Frame Time: 0.008333333333333333
-7.669275 15.317640 2.286719 -27.110227 41.851819 -24.821464 0.000000 0.000000 0.000000 -24.563472 2.003033 -50.060775 11.322714 18.086761 63.822049 -0.104901 -9.268622 -4.343180 0.001383 0.106129 0.291585 0.000000 0.000000 0.000000 18.201834 -12.803601 1.559376 -4.551092 -12.858329 38.842670 -1.271147 1.642984 -20.830513 -4.040164 12.213520 -36.491595 12.356133 3.422775 23.442642 10.158534 8.698559 5.767722 1.774293 4.267855 -6.468718 -5.182308 -2.249284 -14.804932 2.133288 -2.250528 14.166620 1.307540 -1.167287 6.847576 0.000000 0.000000 0.000000 1.243698 29.192606 -44.951205 106.408800 -58.955127 74.160387 24.804505 -22.594541 -7.066741 0.000000 0.000000 0.000000 -7.125000 0.000000 0.000000 -1.694875 37.751446 -0.302467 0.000000 0.000000 0.000000 -14.452673 5.435642 44.202864 -102.549709 -59.393699 -70.846056 -16.101434 -20.033613 -25.840520 0.000000 0.000000 0.000000 7.125000 0.000000 0.000000 8.253384 3.466742 7.821826
-7.612924 15.322220 2.368157 -28.289981 41.644856 -25.837692 0.000000 0.000000 0.000000 -23.979815 2.300298 -49.852926 11.149142 18.006682 63.264248 -0.123104 -9.199565 -3.871840 0.001649 0.239987 0.659355 0.000000 0.000000 0.000000 19.126903 -12.983704 2.279727 -4.479376 -12.771986 38.521411 -1.220440 1.830651 -20.358139 -4.059991 12.239760 -36.585384 13.399399 3.277924 23.721025 10.314702 8.837677 5.749165 1.336580 4.321664 -6.501754 -5.304524 -2.303152 -14.735196 2.254765 -2.320885 14.147561 1.360019 -1.197161 6.834929 0.000000 0.000000 0.000000 1.422293 29.711018 -45.059414 106.891901 -58.893280 74.574460 24.786214 -22.900524 -6.816222 0.000000 0.000000 0.000000 -7.125000 0.000000 0.000000 -1.691624 37.475338 -0.313400 0.000000 0.000000 0.000000 -14.491619 5.256426 44.384592 -103.056626 -59.345297 -71.282469 -16.239902 -20.264038 -25.919860 0.000000 0.000000 0.000000 7.125000 0.000000 0.000000 8.175551 3.366127 7.762077
-7.556526 15.319782 2.444891 -29.809998 41.271067 -27.093344 0.000000 0.000000 0.000000 -23.037751 2.554664 -49.635384 10.990776 17.928824 62.749514 -0.115929 -8.655266 -3.486539 0.002941 0.330659 0.908523 0.000000 0.000000 0.000000 20.362203 -13.181879 2.945290 -4.433801 -12.715938 38.314814 -1.158776 1.909528 -19.788123 -4.082254 12.268912 -36.690083 14.810955 3.030491 24.018149 10.507777 8.978323 5.708692 0.767780 4.371056 -6.507503 -5.319979 -2.315052 -14.575935 2.311212 -2.351183 14.058386 1.378838 -1.207913 6.780886 0.000000 0.000000 0.000000 1.597380 30.178580 -45.151485 107.288867 -58.838572 74.914145 24.624732 -23.163033 -6.623835 0.000000 0.000000 0.000000 -7.125000 0.000000 0.000000 -1.814543 37.254735 -0.347609 0.000000 0.000000 0.000000 -14.520801 5.111420 44.524876 -103.525323 -59.295535 -71.685412 -16.213621 -20.338022 -26.049237 0.000000 0.000000 0.000000 7.125000 0.000000 0.000000 8.201328 3.239657 7.806654
-7.500117 15.315674 2.520508 -31.410917 40.857614 -28.405922 0.000000 0.000000 0.000000 -22.010471 2.798829 -49.415538 10.836027 17.851494 62.245020 -0.102720 -7.997973 -3.121694 0.004478 0.411062 1.129492 0.000000 0.000000 0.000000 21.671264 -13.384350 3.597826 -4.394441 -12.667093 38.135480 -1.094506 1.962540 -19.194892 -4.105095 12.298757 -36.797377 16.310077 2.758668 24.319729 10.709628 9.119332 5.663009 0.167812 4.419399 -6.506764 -5.310050 -2.316972 -14.395389 2.352197 -2.371956 13.952541 1.389653 -1.214119 6.717001 0.000000 0.000000 0.000000 1.771632 30.634052 -45.239719 107.665354 -58.785560 75.236144 24.429204 -23.415207 -6.445269 0.000000 0.000000 0.000000 -7.125000 0.000000 0.000000 -1.967461 37.047328 -0.387353 0.000000 0.000000 0.000000 -14.547661 4.974548 44.655306 -103.984932 -59.245449 -72.080397 -16.148169 -20.374811 -26.190512 0.000000 0.000000 0.000000 7.125000 0.000000 0.000000 8.251739 3.107040 7.876036
-7.443707 15.311567 2.596124 -33.011836 40.444161 -29.718499 0.000000 0.000000 0.000000 -20.983192 3.042994 -49.195691 10.681278 17.774163 61.740526 -0.089512 -7.340679 -2.756849 0.006015 0.491466 1.350462 0.000000 0.000000 0.000000 22.980326 -13.586822 4.250362 -4.355082 -12.618248 37.956145 -1.030237 2.015551 -18.601662 -4.127937 12.328601 -36.904670 17.809199 2.486844 24.621308 10.911479 9.260341 5.617326 -0.432156 4.467742 -6.506026 -5.300122 -2.318893 -14.214843 2.393182 -2.392729 13.846696 1.400468 -1.220324 6.653115 0.000000 0.000000 0.000000 1.945884 31.089525 -45.327953 108.041841 -58.732549 75.558142 24.233677 -23.667380 -6.266703 0.000000 0.000000 0.000000 -7.125000 0.000000 0.000000 -2.120378 36.839922 -0.427097 0.000000 0.000000 0.000000 -14.574521 4.837675 44.785737 -104.444541 -59.195363 -72.475382 -16.082718 -20.411600 -26.331787 0.000000 0.000000 0.000000 7.125000 0.000000 0.000000 8.302150 2.974423 7.945417
-7.376667 15.326804 2.690735 -32.868123 40.918037 -29.618122 0.000000 0.000000 0.000000 -21.698053 3.203583 -48.775912 10.457601 17.654487 61.000914 -0.076090 -6.766975 -2.547915 0.009755 0.609670 1.675467 0.000000 0.000000 0.000000 22.603064 -13.907452 4.725528 -4.337959 -12.597049 37.878230 -0.978400 2.266367 -18.077684 -4.157089 12.366334 -37.040811 17.530596 2.515158 24.325217 10.827992 9.182209 5.606588 -0.329490 4.438655 -6.389456 -5.285272 -2.325935 -14.054080 2.438586 -2.421002 13.764452 1.411057 -1.229610 6.600561 0.000000 0.000000 0.000000 2.120674 31.522083 -45.419831 108.393149 -58.681679 75.858404 24.138116 -23.814403 -6.147110 0.000000 0.000000 0.000000 -7.125000 0.000000 0.000000 -2.192874 36.703134 -0.447696 0.000000 0.000000 0.000000 -14.561628 4.805578 44.870303 -105.008987 -59.128812 -72.959853 -15.944282 -20.379436 -26.472812 0.000000 0.000000 0.000000 7.125000 0.000000 0.000000 8.396158 2.853175 8.056468
-7.295171 15.368351 2.811178 -30.351709 42.598680 -27.596126 0.000000 0.000000 0.000000 -24.782226 3.250507 -48.084223 10.140183 17.477221 59.941544 -0.062379 -6.306952 -2.551017 0.016492 0.779282 2.141961 0.000000 0.000000 0.000000 19.932403 -14.388780 4.959469 -4.351079 -12.613449 37.938244 -0.943473 2.786197 -17.647890 -4.194824 12.414795 -37.216186 14.834286 2.951660 23.216293 10.356445 8.806047 5.643377 0.728757 4.304265 -6.115358 -5.263731 -2.339941 -13.920222 2.490002 -2.459475 13.714307 1.421340 -1.243084 6.563418 0.000000 0.000000 0.000000 2.296196 31.923480 -45.516664 108.710212 -58.633720 76.129104 24.178510 -23.818422 -6.107721 0.000000 0.000000 0.000000 -7.125000 0.000000 0.000000 -2.155996 36.662385 -0.442259 0.000000 0.000000 0.000000 -14.494669 4.915974 44.892495 -105.716012 -59.039869 -73.566026 -15.706588 -20.253497 -26.613496 0.000000 0.000000 0.000000 7.125000 0.000000 0.000000 8.549460 2.747389 8.224190
-7.213674 15.409897 2.931621 -27.835295 44.279323 -25.574130 0.000000 0.000000 0.000000 -27.866400 3.297432 -47.392534 9.822765 17.299955 58.882174 -0.048669 -5.846930 -2.554120 0.023229 0.948895 2.608455 0.000000 0.000000 0.000000 17.261742 -14.870108 5.193411 -4.364199 -12.629849 37.998259 -0.908546 3.306028 -17.218096 -4.232558 12.463256 -37.391561 12.137976 3.388161 22.107368 9.884898 8.429885 5.680166 1.787004 4.169875 -5.841259 -5.242189 -2.353948 -13.786364 2.541418 -2.497948 13.664162 1.431624 -1.256558 6.526274 0.000000 0.000000 0.000000 2.471719 32.324877 -45.613497 109.027276 -58.585762 76.399805 24.218904 -23.822440 -6.068331 0.000000 0.000000 0.000000 -7.125000 0.000000 0.000000 -2.119119 36.621637 -0.436822 0.000000 0.000000 0.000000 -14.427711 5.026370 44.914686 -106.423037 -58.950926 -74.172200 -15.468894 -20.127558 -26.754180 0.000000 0.000000 0.000000 7.125000 0.000000 0.000000 8.702761 2.641603 8.391912
-7.132544 15.450395 3.050726 -25.405500 45.908788 -23.617731 0.000000 0.000000 0.000000 -30.858972 3.351310 -46.713360 9.508738 17.123900 57.833156 -0.035135 -5.376932 -2.548796 0.029992 1.116450 3.069308 0.000000 0.000000 0.000000 14.678512 -15.331417 5.424938 -4.378465 -12.647651 38.063455 -0.871929 3.824878 -16.771792 -4.275448 12.517849 -37.589877 9.534430 3.809959 21.028173 9.428184 8.066696 5.714211 2.808190 4.040111 -5.573289 -5.223369 -2.368468 -13.654505 2.593360 -2.536547 13.617054 1.442496 -1.270196 6.490502 0.000000 0.000000 0.000000 2.644340 32.723799 -45.709216 109.341566 -58.538138 76.668124 24.240274 -23.828402 -6.030366 0.000000 0.000000 0.000000 -7.125000 0.000000 0.000000 -2.098363 36.581368 -0.434737 0.000000 0.000000 0.000000 -14.364137 5.138749 44.938915 -107.126371 -58.861971 -74.775143 -15.241967 -20.000531 -26.891224 0.000000 0.000000 0.000000 7.125000 0.000000 0.000000 8.849330 2.537865 8.552682
-7.060326 15.465435 3.137365 -25.079306 46.295351 -23.254393 0.000000 0.000000 0.000000 -31.626957 3.574082 -46.338114 9.277072 16.977247 57.035533 -0.025916 -4.664677 -2.338819 0.037379 1.234026 3.393168 0.000000 0.000000 0.000000 14.218607 -15.306566 5.597830 -4.420573 -12.699510 38.254491 -0.794273 4.319916 -15.924527 -4.443554 12.721385 -38.345333 9.183710 3.874672 20.670952 9.331706 8.018561 5.681618 2.929313 4.022676 -5.454176 -5.270618 -2.395476 -13.571176 2.658103 -2.578181 13.643708 1.467672 -1.287808 6.488020 0.000000 0.000000 0.000000 2.746492 33.062611 -45.777888 109.588509 -58.498630 76.878603 23.799635 -23.881561 -6.026967 0.000000 0.000000 0.000000 -7.125000 0.000000 0.000000 -2.469117 36.552734 -0.514047 0.000000 0.000000 0.000000 -14.382783 5.299290 45.012610 -107.740079 -58.772732 -75.299642 -15.276540 -19.847082 -26.939862 0.000000 0.000000 0.000000 7.125000 0.000000 0.000000 8.832399 2.483878 8.544645
